<?xml version="1.0" encoding="UTF-8" standalone="no"?>
<!-- Created with Inkscape (http://www.inkscape.org/) -->

<svg
   xmlns:dc="http://purl.org/dc/elements/1.1/"
   xmlns:cc="http://creativecommons.org/ns#"
   xmlns:rdf="http://www.w3.org/1999/02/22-rdf-syntax-ns#"
   xmlns:svg="http://www.w3.org/2000/svg"
   xmlns="http://www.w3.org/2000/svg"
   xmlns:sodipodi="http://sodipodi.sourceforge.net/DTD/sodipodi-0.dtd"
   xmlns:inkscape="http://www.inkscape.org/namespaces/inkscape"
   width="32"
   height="32"
   viewBox="0 0 8.4666666 8.4666667"
   version="1.1"
   id="svg2706"
   inkscape:version="0.92.4 (unknown)"
   sodipodi:docname="bold.svg">
  <defs
     id="defs2700" />
  <sodipodi:namedview
     id="base"
     pagecolor="#ffffff"
     bordercolor="#666666"
     borderopacity="1.0"
     inkscape:pageopacity="0.0"
     inkscape:pageshadow="2"
     inkscape:zoom="8.0125"
     inkscape:cx="-5.0725371"
     inkscape:cy="25.376153"
     inkscape:document-units="mm"
     inkscape:current-layer="layer1"
     showgrid="false"
     fit-margin-top="0"
     fit-margin-left="0"
     fit-margin-right="0"
     fit-margin-bottom="0"
     inkscape:window-width="1600"
     inkscape:window-height="832"
     inkscape:window-x="0"
     inkscape:window-y="0"
     inkscape:window-maximized="1"
     units="px" />
  <metadata
     id="metadata2703">
    <rdf:RDF>
      <cc:Work
         rdf:about="">
        <dc:format>image/svg+xml</dc:format>
        <dc:type
           rdf:resource="http://purl.org/dc/dcmitype/StillImage" />
        <dc:title />
      </cc:Work>
    </rdf:RDF>
  </metadata>
  <g
     inkscape:label="Ebene 1"
     inkscape:groupmode="layer"
     id="layer1"
     transform="translate(173.50447,-22.626904)">
    <path
       id="path1879"
       d="m -167.66956,26.688297 c 0.47765,-0.263211 0.76189,-0.769034 0.76189,-1.358772 0,-0.684917 -0.37273,-1.244228 -0.97444,-1.479269 -0.35053,-0.14212 -0.6954,-0.170661 -1.13825,-0.170661 h -2.63626 c -0.12547,0 -0.22719,0.101709 -0.22719,0.227188 v 0.469274 c 0,0.125479 0.10172,0.227189 0.22719,0.227189 h 0.47018 v 4.5229 h -0.47018 c -0.12547,0 -0.22719,0.101711 -0.22719,0.227189 v 0.460356 c 0,0.125479 0.10172,0.227188 0.22719,0.227188 h 2.77866 c 0.34366,0 0.63661,-0.0183 0.94945,-0.107688 0.72365,-0.216154 1.27004,-0.877075 1.27004,-1.738021 0,-0.740749 -0.37731,-1.301848 -1.01109,-1.506873 z m -2.30846,-2.031663 h 0.95766 c 0.23136,0 0.391,0.02867 0.53283,0.09538 0.22473,0.120395 0.35364,0.376309 0.35364,0.702098 0,0.497388 -0.28853,0.806378 -0.75297,0.806378 h -1.09116 z m 1.59944,4.33753 c -0.14399,0.05759 -0.322,0.06968 -0.446,0.06968 h -1.15344 v -1.835231 h 1.19795 c 0.56292,0 0.89536,0.360378 0.89536,0.895365 1e-5,0.403615 -0.19396,0.745221 -0.49387,0.870189 z"
       inkscape:connector-curvature="0"
       style="fill:#cccccc;fill-opacity:1;stroke:#000000;stroke-width:0.19745977;stroke-miterlimit:4;stroke-dasharray:none;stroke-opacity:1"
       inkscape:export-xdpi="90"
       inkscape:export-ydpi="90" />
  </g>
</svg>
