<?xml version="1.0" encoding="UTF-8" standalone="no"?>
<!-- Created with Inkscape (http://www.inkscape.org/) -->

<svg
   xmlns:dc="http://purl.org/dc/elements/1.1/"
   xmlns:cc="http://creativecommons.org/ns#"
   xmlns:rdf="http://www.w3.org/1999/02/22-rdf-syntax-ns#"
   xmlns:svg="http://www.w3.org/2000/svg"
   xmlns="http://www.w3.org/2000/svg"
   xmlns:sodipodi="http://sodipodi.sourceforge.net/DTD/sodipodi-0.dtd"
   xmlns:inkscape="http://www.inkscape.org/namespaces/inkscape"
   width="32"
   height="32"
   viewBox="0 0 8.4666666 8.4666667"
   version="1.1"
   id="svg2706"
   inkscape:version="0.92.4 (unknown)"
   sodipodi:docname="book.svg">
  <defs
     id="defs2700" />
  <sodipodi:namedview
     id="base"
     pagecolor="#ffffff"
     bordercolor="#666666"
     borderopacity="1.0"
     inkscape:pageopacity="0.0"
     inkscape:pageshadow="2"
     inkscape:zoom="8.0125"
     inkscape:cx="-5.0725371"
     inkscape:cy="25.376153"
     inkscape:document-units="mm"
     inkscape:current-layer="layer1"
     showgrid="false"
     fit-margin-top="0"
     fit-margin-left="0"
     fit-margin-right="0"
     fit-margin-bottom="0"
     inkscape:window-width="1600"
     inkscape:window-height="832"
     inkscape:window-x="0"
     inkscape:window-y="0"
     inkscape:window-maximized="1"
     units="px" />
  <metadata
     id="metadata2703">
    <rdf:RDF>
      <cc:Work
         rdf:about="">
        <dc:format>image/svg+xml</dc:format>
        <dc:type
           rdf:resource="http://purl.org/dc/dcmitype/StillImage" />
        <dc:title />
      </cc:Work>
    </rdf:RDF>
  </metadata>
  <g
     inkscape:label="Ebene 1"
     inkscape:groupmode="layer"
     id="layer1"
     transform="translate(173.50447,-22.626904)">
    <path
       id="path1901"
       d="m -166.20884,28.282014 v -4.593433 c 0,-0.181824 -0.14628,-0.328102 -0.32811,-0.328102 h -4.48406 c -0.72456,0 -1.31242,0.58785 -1.31242,1.312409 v 4.374698 c 0,0.72456 0.58786,1.31241 1.31242,1.31241 h 4.48406 c 0.18183,0 0.32811,-0.146279 0.32811,-0.328103 v -0.218734 c 0,-0.102532 -0.0478,-0.195495 -0.12168,-0.255646 -0.0574,-0.210533 -0.0574,-0.810687 0,-1.021219 0.0738,-0.05879 0.12168,-0.151748 0.12168,-0.25428 z m -4.37471,-3.089631 c 0,-0.04512 0.0369,-0.08202 0.082,-0.08202 h 2.89824 c 0.0451,0 0.082,0.03691 0.082,0.08202 v 0.273419 c 0,0.04512 -0.0369,0.08202 -0.082,0.08202 h -2.89824 c -0.0451,0 -0.082,-0.03691 -0.082,-0.08202 z m 0,0.87494 c 0,-0.04511 0.0369,-0.08202 0.082,-0.08202 h 2.89824 c 0.0451,0 0.082,0.03691 0.082,0.08202 v 0.273418 c 0,0.04512 -0.0369,0.08202 -0.082,0.08202 h -2.89824 c -0.0451,0 -0.082,-0.03691 -0.082,-0.08202 z m 3.46423,3.417733 h -3.90169 c -0.24199,0 -0.43748,-0.195494 -0.43748,-0.43747 0,-0.240608 0.19687,-0.437469 0.43748,-0.437469 h 3.90169 c -0.026,0.233773 -0.026,0.641167 0,0.874939 z"
       inkscape:connector-curvature="0"
       style="fill:#cccccc;fill-opacity:1;stroke:#000000;stroke-width:0.2189095;stroke-miterlimit:4;stroke-dasharray:none;stroke-opacity:1"
       inkscape:export-xdpi="90"
       inkscape:export-ydpi="90" />
  </g>
</svg>
