<?xml version="1.0" encoding="UTF-8" standalone="no"?>
<!-- Created with Inkscape (http://www.inkscape.org/) -->

<svg
   xmlns:dc="http://purl.org/dc/elements/1.1/"
   xmlns:cc="http://creativecommons.org/ns#"
   xmlns:rdf="http://www.w3.org/1999/02/22-rdf-syntax-ns#"
   xmlns:svg="http://www.w3.org/2000/svg"
   xmlns="http://www.w3.org/2000/svg"
   xmlns:sodipodi="http://sodipodi.sourceforge.net/DTD/sodipodi-0.dtd"
   xmlns:inkscape="http://www.inkscape.org/namespaces/inkscape"
   width="793.70081"
   height="1122.5197"
   viewBox="0 0 210 297"
   version="1.1"
   id="svg8"
   inkscape:version="0.92.4 (unknown)"
   sodipodi:docname="icons.svg"
   inkscape:export-filename="/home/art/Sourcecode/Python/EbookCreator/images/trash_normal.png"
   inkscape:export-xdpi="96"
   inkscape:export-ydpi="96">
  <defs
     id="defs2" />
  <sodipodi:namedview
     id="base"
     pagecolor="#ffffff"
     bordercolor="#666666"
     borderopacity="1.0"
     inkscape:pageopacity="0.0"
     inkscape:pageshadow="2"
     inkscape:zoom="3.7250726"
     inkscape:cx="966.80431"
     inkscape:cy="251.28117"
     inkscape:document-units="mm"
     inkscape:current-layer="layer1"
     showgrid="false"
     units="px"
     inkscape:window-width="1600"
     inkscape:window-height="832"
     inkscape:window-x="0"
     inkscape:window-y="0"
     inkscape:window-maximized="1" />
  <metadata
     id="metadata5">
    <rdf:RDF>
      <cc:Work
         rdf:about="">
        <dc:format>image/svg+xml</dc:format>
        <dc:type
           rdf:resource="http://purl.org/dc/dcmitype/StillImage" />
        <dc:title></dc:title>
      </cc:Work>
    </rdf:RDF>
  </metadata>
  <g
     inkscape:label="Ebene 1"
     inkscape:groupmode="layer"
     id="layer1">
    <rect
       style="fill:#191919;fill-opacity:0.99215686;stroke:none;stroke-width:0.26458332"
       id="rect1543"
       width="20.100838"
       height="7.6709914"
       x="256.05484"
       y="225.75922" />
    <g
       id="g1425"
       inkscape:export-xdpi="96"
       inkscape:export-ydpi="96">
      <path
         d="m 235.4991,229.68814 a 3.175,3.175 0 0 1 -3.16718,3.17499 3.175,3.175 0 0 1 -3.18278,-3.15933 3.175,3.175 0 0 1 3.15148,-3.19057 3.175,3.175 0 0 1 3.19832,3.1436"
         sodipodi:open="true"
         sodipodi:end="6.2733242"
         sodipodi:start="0"
         sodipodi:ry="3.175"
         sodipodi:rx="3.175"
         sodipodi:cy="229.68814"
         sodipodi:cx="232.3241"
         sodipodi:type="arc"
         id="path935"
         style="fill:#1a1a1a;fill-opacity:0.99215686;stroke:none;stroke-width:0.27323022" />
      <path
         style="fill:#ffffff;stroke-width:0.00801625"
         inkscape:connector-curvature="0"
         d="m 230.78488,231.35552 a 0.38477999,0.38477999 0 0 0 0.38478,0.38478 h 2.30868 a 0.38477999,0.38477999 0 0 0 0.38478,-0.38478 v -2.69346 h -3.07824 z m 2.18042,-2.05216 a 0.12826167,0.12826167 0 0 1 0.25652,0 v 1.79564 a 0.12826167,0.12826167 0 0 1 -0.25652,0 z m -0.76956,0 a 0.12826096,0.12826096 0 0 1 0.25652,0 v 1.79564 a 0.12826096,0.12826096 0 0 1 -0.25652,0 z m -0.76956,0 a 0.12826005,0.12826005 0 0 1 0.25652,0 v 1.79564 a 0.12826005,0.12826005 0 0 1 -0.25652,0 z m 2.5652,-1.41086 h -0.96195 l -0.0753,-0.1499 a 0.19238999,0.19238999 0 0 0 -0.17235,-0.10662 h -0.91626 a 0.19014544,0.19014544 0 0 0 -0.17155,0.10662 l -0.0753,0.1499 h -0.96196 a 0.12825999,0.12825999 0 0 0 -0.12825,0.12826 v 0.25652 a 0.12825999,0.12825999 0 0 0 0.12825,0.12826 h 3.33477 a 0.12825999,0.12825999 0 0 0 0.12826,-0.12826 v -0.25652 a 0.12825999,0.12825999 0 0 0 -0.12826,-0.12826 z"
         id="path1243" />
    </g>
    <g
       id="g1429"
       transform="translate(0,-0.17303467)"
       inkscape:export-xdpi="96"
       inkscape:export-ydpi="96">
      <path
         d="m 243.31746,229.86118 a 3.175,3.175 0 0 1 -3.16718,3.17499 3.175,3.175 0 0 1 -3.18279,-3.15934 3.175,3.175 0 0 1 3.15148,-3.19057 3.175,3.175 0 0 1 3.19833,3.14361"
         sodipodi:open="true"
         sodipodi:end="6.2733242"
         sodipodi:start="0"
         sodipodi:ry="3.175"
         sodipodi:rx="3.175"
         sodipodi:cy="229.86118"
         sodipodi:cx="240.14246"
         sodipodi:type="arc"
         id="path935-3"
         style="fill:#1a1a1a;fill-opacity:0.99215686;stroke:none;stroke-width:0.27323025" />
      <path
         style="fill:#45bbe6;fill-opacity:1;stroke-width:0.00801625"
         inkscape:connector-curvature="0"
         d="m 238.60324,231.52856 a 0.38478,0.38478 0 0 0 0.38478,0.38478 h 2.30868 a 0.38478,0.38478 0 0 0 0.38478,-0.38478 v -2.69346 h -3.07824 z m 2.18042,-2.05216 a 0.12826167,0.12826167 0 0 1 0.25652,0 v 1.79564 a 0.12826167,0.12826167 0 0 1 -0.25652,0 z m -0.76956,0 a 0.12826096,0.12826096 0 0 1 0.25652,0 v 1.79564 a 0.12826096,0.12826096 0 0 1 -0.25652,0 z m -0.76956,0 a 0.12826005,0.12826005 0 0 1 0.25652,0 v 1.79564 a 0.12826005,0.12826005 0 0 1 -0.25652,0 z m 2.5652,-1.41086 h -0.96195 l -0.0753,-0.1499 a 0.19238999,0.19238999 0 0 0 -0.17235,-0.10662 h -0.91626 a 0.19014544,0.19014544 0 0 0 -0.17155,0.10662 l -0.0753,0.1499 h -0.96196 a 0.12825999,0.12825999 0 0 0 -0.12825,0.12826 v 0.25652 a 0.12825999,0.12825999 0 0 0 0.12825,0.12826 h 3.33477 a 0.12825999,0.12825999 0 0 0 0.12826,-0.12826 v -0.25652 a 0.12825999,0.12825999 0 0 0 -0.12826,-0.12826 z"
         id="path1243-5" />
    </g>
    <g
       id="g1433"
       transform="translate(0,-0.2024231)"
       inkscape:export-xdpi="96"
       inkscape:export-ydpi="96">
      <path
         d="m 251.89712,229.89056 a 3.175,3.175 0 0 1 -3.16717,3.17499 3.175,3.175 0 0 1 -3.18279,-3.15933 3.175,3.175 0 0 1 3.15148,-3.19057 3.175,3.175 0 0 1 3.19833,3.14361"
         sodipodi:open="true"
         sodipodi:end="6.2733242"
         sodipodi:start="0"
         sodipodi:ry="3.175"
         sodipodi:rx="3.175"
         sodipodi:cy="229.89056"
         sodipodi:cx="248.72212"
         sodipodi:type="arc"
         id="path935-6"
         style="fill:#1a1a1a;fill-opacity:0.99215686;stroke:none;stroke-width:0.27323025" />
      <path
         style="fill:#999999;fill-opacity:1;stroke-width:0.00801625"
         inkscape:connector-curvature="0"
         d="m 247.18291,231.55794 a 0.38478,0.38478 0 0 0 0.38478,0.38478 h 2.30868 a 0.38478,0.38478 0 0 0 0.38478,-0.38478 v -2.69346 h -3.07824 z m 2.18042,-2.05216 a 0.12826167,0.12826167 0 0 1 0.25652,0 v 1.79564 a 0.12826167,0.12826167 0 0 1 -0.25652,0 z m -0.76956,0 a 0.12826096,0.12826096 0 0 1 0.25652,0 v 1.79564 a 0.12826096,0.12826096 0 0 1 -0.25652,0 z m -0.76956,0 a 0.12826005,0.12826005 0 0 1 0.25652,0 v 1.79564 a 0.12826005,0.12826005 0 0 1 -0.25652,0 z m 2.5652,-1.41086 h -0.96195 l -0.0753,-0.1499 a 0.19238999,0.19238999 0 0 0 -0.17235,-0.10662 h -0.91626 a 0.19014544,0.19014544 0 0 0 -0.17155,0.10662 l -0.0753,0.1499 h -0.96196 a 0.12825999,0.12825999 0 0 0 -0.12825,0.12826 v 0.25652 a 0.12825999,0.12825999 0 0 0 0.12825,0.12826 h 3.33477 a 0.12825999,0.12825999 0 0 0 0.12826,-0.12826 v -0.25652 a 0.12825999,0.12825999 0 0 0 -0.12826,-0.12826 z"
         id="path1243-2" />
    </g>
    <path
       id="path1435"
       d="m 261.52405,230.08008 v 0.11727 c 0,0.19431 -0.15751,0.35182 -0.35182,0.35182 h -2.81453 c -0.19431,0 -0.35181,-0.15751 -0.35181,-0.35182 V 228.321 c 0,-0.19431 0.1575,-0.35182 0.35181,-0.35182 h 0.11728 v 1.52454 c 0,0.32332 0.26304,0.58636 0.58636,0.58636 z m 0.70363,-0.58636 v -1.87635 c 0,-0.19432 -0.15751,-0.35182 -0.35182,-0.35182 h -2.81452 c -0.19431,0 -0.35182,0.1575 -0.35182,0.35182 v 1.87635 c 0,0.1943 0.15751,0.35181 0.35182,0.35181 h 2.81452 c 0.19431,0 0.35182,-0.15751 0.35182,-0.35181 z m -2.34544,-1.52454 c 0,0.1943 -0.15751,0.35182 -0.35182,0.35182 -0.1943,0 -0.35182,-0.15752 -0.35182,-0.35182 0,-0.19431 0.15752,-0.35181 0.35182,-0.35181 0.19431,0 0.35182,0.1575 0.35182,0.35181 z m -0.70364,1.05545 0.4069,-0.4069 c 0.0344,-0.0344 0.09,-0.0344 0.1244,0 l 0.28961,0.28962 0.99326,-0.99325 c 0.0344,-0.0344 0.09,-0.0344 0.12439,0 l 0.64143,0.64144 v 0.8209 h -2.57999 z"
       inkscape:connector-curvature="0"
       style="stroke-width:0.0073295;fill:#45bbe6;fill-opacity:1;stroke:#000000;stroke-opacity:1" />
    <path
       id="path1446"
       d="m 265.77787,220.64834 h -5.1823 c -0.33025,0 -0.59796,-0.26771 -0.59796,-0.59797 v -3.58773 c 0,-0.33025 0.26771,-0.59796 0.59796,-0.59796 h 5.1823 c 0.33024,0 0.59795,0.26771 0.59795,0.59796 v 3.58773 c 0,0.33026 -0.26771,0.59797 -0.59795,0.59797 z m -4.38502,-4.08604 c -0.38529,0 -0.69762,0.31233 -0.69762,0.69761 0,0.38528 0.31233,0.69762 0.69762,0.69762 0.38527,0 0.69762,-0.31234 0.69762,-0.69762 0,-0.38528 -0.31235,-0.69761 -0.69762,-0.69761 z m -0.59796,3.28876 h 4.78365 v -1.39524 l -1.09021,-1.0902 c -0.0584,-0.0584 -0.15302,-0.0584 -0.21142,0 l -1.68816,1.68816 -0.69157,-0.69157 c -0.0584,-0.0584 -0.15302,-0.0584 -0.21142,0 l -0.89087,0.89089 z"
       inkscape:connector-curvature="0"
       style="stroke-width:0.01245744"
       inkscape:export-xdpi="96"
       inkscape:export-ydpi="96" />
    <path
       id="path1435-9"
       d="m 266.76675,230.1992 v 0.11727 c 0,0.19431 -0.15751,0.35182 -0.35182,0.35182 h -2.81453 c -0.19431,0 -0.35181,-0.15751 -0.35181,-0.35182 v -1.87635 c 0,-0.19431 0.1575,-0.35182 0.35181,-0.35182 h 0.11728 v 1.52454 c 0,0.32332 0.26304,0.58636 0.58636,0.58636 z m 0.70363,-0.58636 v -1.87635 c 0,-0.19432 -0.15751,-0.35182 -0.35182,-0.35182 h -2.81452 c -0.19431,0 -0.35182,0.1575 -0.35182,0.35182 v 1.87635 c 0,0.1943 0.15751,0.35181 0.35182,0.35181 h 2.81452 c 0.19431,0 0.35182,-0.15751 0.35182,-0.35181 z m -2.34544,-1.52454 c 0,0.1943 -0.15751,0.35182 -0.35182,0.35182 -0.1943,0 -0.35182,-0.15752 -0.35182,-0.35182 0,-0.19431 0.15752,-0.35181 0.35182,-0.35181 0.19431,0 0.35182,0.1575 0.35182,0.35181 z m -0.70364,1.05545 0.4069,-0.4069 c 0.0344,-0.0344 0.09,-0.0344 0.1244,0 l 0.28961,0.28962 0.99326,-0.99325 c 0.0344,-0.0344 0.09,-0.0344 0.12439,0 l 0.64143,0.64144 v 0.8209 h -2.57999 z"
       inkscape:connector-curvature="0"
       style="stroke-width:0.0073295;fill:#999999;fill-opacity:1"
       inkscape:export-xdpi="96"
       inkscape:export-ydpi="96" />
    <path
       id="path1435-1"
       d="m 273.44335,230.12818 v 0.11727 c 0,0.19431 -0.15751,0.35182 -0.35182,0.35182 H 270.277 c -0.19431,0 -0.35181,-0.15751 -0.35181,-0.35182 v -1.87635 c 0,-0.19431 0.1575,-0.35182 0.35181,-0.35182 h 0.11728 v 1.52454 c 0,0.32332 0.26304,0.58636 0.58636,0.58636 z m 0.70363,-0.58636 v -1.87635 c 0,-0.19432 -0.15751,-0.35182 -0.35182,-0.35182 h -2.81452 c -0.19431,0 -0.35182,0.1575 -0.35182,0.35182 v 1.87635 c 0,0.1943 0.15751,0.35181 0.35182,0.35181 h 2.81452 c 0.19431,0 0.35182,-0.15751 0.35182,-0.35181 z m -2.34544,-1.52454 c 0,0.1943 -0.15751,0.35182 -0.35182,0.35182 -0.1943,0 -0.35182,-0.15752 -0.35182,-0.35182 0,-0.19431 0.15752,-0.35181 0.35182,-0.35181 0.19431,0 0.35182,0.1575 0.35182,0.35181 z m -0.70364,1.05545 0.4069,-0.4069 c 0.0344,-0.0344 0.09,-0.0344 0.1244,0 l 0.28961,0.28962 0.99326,-0.99325 c 0.0344,-0.0344 0.09,-0.0344 0.12439,0 l 0.64143,0.64144 v 0.8209 h -2.57999 z"
       inkscape:connector-curvature="0"
       style="stroke-width:0.0073295;fill:#ffffff;fill-opacity:1"
       inkscape:export-xdpi="96"
       inkscape:export-ydpi="96" />
  </g>
</svg>
