<?xml version="1.0" encoding="UTF-8" standalone="no"?>
<!-- Created with Inkscape (http://www.inkscape.org/) -->

<svg
   xmlns:dc="http://purl.org/dc/elements/1.1/"
   xmlns:cc="http://creativecommons.org/ns#"
   xmlns:rdf="http://www.w3.org/1999/02/22-rdf-syntax-ns#"
   xmlns:svg="http://www.w3.org/2000/svg"
   xmlns="http://www.w3.org/2000/svg"
   xmlns:sodipodi="http://sodipodi.sourceforge.net/DTD/sodipodi-0.dtd"
   xmlns:inkscape="http://www.inkscape.org/namespaces/inkscape"
   width="32"
   height="32"
   viewBox="0 0 8.4666666 8.4666667"
   version="1.1"
   id="svg2706"
   inkscape:version="0.92.4 (unknown)"
   sodipodi:docname="image.svg">
  <defs
     id="defs2700" />
  <sodipodi:namedview
     id="base"
     pagecolor="#ffffff"
     bordercolor="#666666"
     borderopacity="1.0"
     inkscape:pageopacity="0.0"
     inkscape:pageshadow="2"
     inkscape:zoom="8.0125"
     inkscape:cx="25.005466"
     inkscape:cy="25.376153"
     inkscape:document-units="mm"
     inkscape:current-layer="layer1"
     showgrid="false"
     fit-margin-top="0"
     fit-margin-left="0"
     fit-margin-right="0"
     fit-margin-bottom="0"
     inkscape:window-width="1600"
     inkscape:window-height="832"
     inkscape:window-x="0"
     inkscape:window-y="0"
     inkscape:window-maximized="1"
     units="px" />
  <metadata
     id="metadata2703">
    <rdf:RDF>
      <cc:Work
         rdf:about="">
        <dc:format>image/svg+xml</dc:format>
        <dc:type
           rdf:resource="http://purl.org/dc/dcmitype/StillImage" />
        <dc:title></dc:title>
      </cc:Work>
    </rdf:RDF>
  </metadata>
  <g
     inkscape:label="Ebene 1"
     inkscape:groupmode="layer"
     id="layer1"
     transform="translate(173.50447,-22.626904)">
    <path
       inkscape:export-ydpi="96"
       inkscape:export-xdpi="96"
       style="fill:#cccccc;fill-opacity:1;stroke:#000000;stroke-width:0.25367206;stroke-miterlimit:4;stroke-dasharray:none;stroke-opacity:1"
       inkscape:connector-curvature="0"
       d="m -165.99957,29.880136 h -6.54312 c -0.41697,0 -0.75498,-0.338008 -0.75498,-0.75499 v -4.529831 c 0,-0.416968 0.33801,-0.754976 0.75498,-0.754976 h 6.54312 c 0.41696,0 0.75496,0.338008 0.75496,0.754976 v 4.529831 c 0,0.416982 -0.338,0.75499 -0.75496,0.75499 z m -5.53648,-5.158991 c -0.48647,0 -0.88082,0.394345 -0.88082,0.880797 0,0.48645 0.39435,0.880807 0.88082,0.880807 0.48643,0 0.8808,-0.394357 0.8808,-0.880807 0,-0.486452 -0.39437,-0.880797 -0.8808,-0.880797 z m -0.75498,4.152353 h 6.03979 v -1.761614 l -1.37649,-1.376474 c -0.0737,-0.07374 -0.1932,-0.07374 -0.26694,0 l -2.13145,2.131453 -0.87317,-0.873171 c -0.0737,-0.07374 -0.1932,-0.07374 -0.26694,0 l -1.1248,1.12483 z"
       id="path1446" />
  </g>
</svg>
