<?xml version="1.0" encoding="UTF-8" standalone="no"?>
<!-- Created with Inkscape (http://www.inkscape.org/) -->

<svg
   xmlns:dc="http://purl.org/dc/elements/1.1/"
   xmlns:cc="http://creativecommons.org/ns#"
   xmlns:rdf="http://www.w3.org/1999/02/22-rdf-syntax-ns#"
   xmlns:svg="http://www.w3.org/2000/svg"
   xmlns="http://www.w3.org/2000/svg"
   xmlns:sodipodi="http://sodipodi.sourceforge.net/DTD/sodipodi-0.dtd"
   xmlns:inkscape="http://www.inkscape.org/namespaces/inkscape"
   width="17"
   height="17"
   viewBox="0 0 4.4979166 4.4979168"
   version="1.1"
   id="svg4995"
   inkscape:version="0.92.4 (unknown)"
   sodipodi:docname="images.svg">
  <defs
     id="defs4989" />
  <sodipodi:namedview
     id="base"
     pagecolor="#ffffff"
     bordercolor="#666666"
     borderopacity="1.0"
     inkscape:pageopacity="0.0"
     inkscape:pageshadow="2"
     inkscape:zoom="12.463889"
     inkscape:cx="5.7142857"
     inkscape:cy="14.285714"
     inkscape:document-units="mm"
     inkscape:current-layer="layer1"
     showgrid="false"
     units="px"
     inkscape:window-width="1600"
     inkscape:window-height="832"
     inkscape:window-x="0"
     inkscape:window-y="0"
     inkscape:window-maximized="1" />
  <metadata
     id="metadata4992">
    <rdf:RDF>
      <cc:Work
         rdf:about="">
        <dc:format>image/svg+xml</dc:format>
        <dc:type
           rdf:resource="http://purl.org/dc/dcmitype/StillImage" />
        <dc:title></dc:title>
      </cc:Work>
    </rdf:RDF>
  </metadata>
  <g
     inkscape:label="Ebene 1"
     inkscape:groupmode="layer"
     id="layer1"
     transform="translate(0,-292.50207)">
    <path
       inkscape:export-ydpi="96"
       inkscape:export-xdpi="96"
       style="fill:#ff00ff;fill-opacity:1;stroke:#000000;stroke-width:0.13229166;stroke-miterlimit:4;stroke-dasharray:none;stroke-opacity:1"
       inkscape:connector-curvature="0"
       d="m 3.656224,295.92375 v 0.11727 c 0,0.19431 -0.157511,0.35181 -0.351821,0.35181 H 0.48987129 c -0.19430996,0 -0.35180976,-0.1575 -0.35180976,-0.35181 v -1.87635 c 0,-0.19431 0.1574998,-0.35182 0.35180976,-0.35182 h 0.11727746 v 1.52454 c 0,0.32332 0.2630424,0.58636 0.58636185,0.58636 z m 0.7036311,-0.58636 v -1.87635 c 0,-0.19432 -0.1575142,-0.35182 -0.3518242,-0.35182 H 1.1935106 c -0.19431002,0 -0.35182108,0.1575 -0.35182108,0.35182 v 1.87635 c 0,0.19429 0.15751106,0.35181 0.35182108,0.35181 h 2.8145203 c 0.19431,0 0.3518242,-0.15752 0.3518242,-0.35181 z m -2.3454447,-1.52454 c 0,0.1943 -0.1575082,0.35182 -0.3518182,0.35182 -0.1943016,0 -0.3518211,-0.15752 -0.3518211,-0.35182 0,-0.19431 0.1575195,-0.35181 0.3518211,-0.35181 0.19431,0 0.3518182,0.1575 0.3518182,0.35181 z m -0.7036393,1.05545 0.4069024,-0.4069 c 0.034397,-0.0344 0.089998,-0.0344 0.1243979,0 l 0.2896108,0.28962 0.9932585,-0.99325 c 0.0344,-0.0344 0.090001,-0.0344 0.1243922,0 l 0.6414291,0.64144 v 0.8209 H 1.3107711 Z"
       id="path1435-9-3" />
  </g>
</svg>
