<?xml version="1.0" encoding="UTF-8" standalone="no"?>
<!-- Created with Inkscape (http://www.inkscape.org/) -->

<svg
   xmlns:dc="http://purl.org/dc/elements/1.1/"
   xmlns:cc="http://creativecommons.org/ns#"
   xmlns:rdf="http://www.w3.org/1999/02/22-rdf-syntax-ns#"
   xmlns:svg="http://www.w3.org/2000/svg"
   xmlns="http://www.w3.org/2000/svg"
   xmlns:sodipodi="http://sodipodi.sourceforge.net/DTD/sodipodi-0.dtd"
   xmlns:inkscape="http://www.inkscape.org/namespaces/inkscape"
   width="32"
   height="32"
   viewBox="0 0 8.4666666 8.4666667"
   version="1.1"
   id="svg2706"
   inkscape:version="0.92.4 (unknown)"
   sodipodi:docname="italic.svg">
  <defs
     id="defs2700" />
  <sodipodi:namedview
     id="base"
     pagecolor="#ffffff"
     bordercolor="#666666"
     borderopacity="1.0"
     inkscape:pageopacity="0.0"
     inkscape:pageshadow="2"
     inkscape:zoom="8.0125"
     inkscape:cx="-5.0725371"
     inkscape:cy="25.376153"
     inkscape:document-units="mm"
     inkscape:current-layer="layer1"
     showgrid="false"
     fit-margin-top="0"
     fit-margin-left="0"
     fit-margin-right="0"
     fit-margin-bottom="0"
     inkscape:window-width="1600"
     inkscape:window-height="832"
     inkscape:window-x="0"
     inkscape:window-y="0"
     inkscape:window-maximized="1"
     units="px" />
  <metadata
     id="metadata2703">
    <rdf:RDF>
      <cc:Work
         rdf:about="">
        <dc:format>image/svg+xml</dc:format>
        <dc:type
           rdf:resource="http://purl.org/dc/dcmitype/StillImage" />
        <dc:title />
      </cc:Work>
    </rdf:RDF>
  </metadata>
  <g
     inkscape:label="Ebene 1"
     inkscape:groupmode="layer"
     id="layer1"
     transform="translate(173.50447,-22.626904)">
    <path
       id="path1890"
       d="m -168.65448,29.064782 h -0.46638 l 0.85553,-4.409089 h 0.56113 a 0.22045443,0.22045443 0 0 0 0.21637,-0.178252 l 0.086,-0.440908 c 0.0266,-0.136117 -0.0777,-0.262658 -0.21637,-0.262658 h -2.20087 a 0.22045443,0.22045443 0 0 0 -0.21638,0.178251 l -0.086,0.440909 c -0.0265,0.136116 0.0777,0.262658 0.21638,0.262658 h 0.46634 l -0.8555,4.409089 h -0.54385 a 0.22045443,0.22045443 0 0 0 -0.21638,0.178223 l -0.086,0.440909 c -0.0265,0.136131 0.0777,0.262685 0.21639,0.262685 h 2.18358 a 0.22045443,0.22045443 0 0 0 0.21638,-0.178223 l 0.0861,-0.440909 c 0.0265,-0.136131 -0.0777,-0.262685 -0.21638,-0.262685 z"
       inkscape:connector-curvature="0"
       style="fill:#cccccc;fill-opacity:1;stroke:#000000;stroke-width:0.1943333;stroke-miterlimit:4;stroke-dasharray:none;stroke-opacity:1"
       inkscape:export-xdpi="90"
       inkscape:export-ydpi="90" />
  </g>
</svg>
