<?xml version="1.0" encoding="UTF-8" standalone="no"?>
<!-- Created with Inkscape (http://www.inkscape.org/) -->

<svg
   xmlns:dc="http://purl.org/dc/elements/1.1/"
   xmlns:cc="http://creativecommons.org/ns#"
   xmlns:rdf="http://www.w3.org/1999/02/22-rdf-syntax-ns#"
   xmlns:svg="http://www.w3.org/2000/svg"
   xmlns="http://www.w3.org/2000/svg"
   xmlns:sodipodi="http://sodipodi.sourceforge.net/DTD/sodipodi-0.dtd"
   xmlns:inkscape="http://www.inkscape.org/namespaces/inkscape"
   width="32"
   height="32"
   viewBox="0 0 8.4666666 8.4666667"
   version="1.1"
   id="svg2706"
   inkscape:version="0.92.4 (unknown)"
   sodipodi:docname="italic.svg">
  <defs
     id="defs2700" />
  <sodipodi:namedview
     id="base"
     pagecolor="#ffffff"
     bordercolor="#666666"
     borderopacity="1.0"
     inkscape:pageopacity="0.0"
     inkscape:pageshadow="2"
     inkscape:zoom="8.0125"
     inkscape:cx="25.005466"
     inkscape:cy="25.376153"
     inkscape:document-units="mm"
     inkscape:current-layer="layer1"
     showgrid="false"
     fit-margin-top="0"
     fit-margin-left="0"
     fit-margin-right="0"
     fit-margin-bottom="0"
     inkscape:window-width="1600"
     inkscape:window-height="832"
     inkscape:window-x="0"
     inkscape:window-y="0"
     inkscape:window-maximized="1"
     units="px" />
  <metadata
     id="metadata2703">
    <rdf:RDF>
      <cc:Work
         rdf:about="">
        <dc:format>image/svg+xml</dc:format>
        <dc:type
           rdf:resource="http://purl.org/dc/dcmitype/StillImage" />
        <dc:title></dc:title>
      </cc:Work>
    </rdf:RDF>
  </metadata>
  <g
     inkscape:label="Ebene 1"
     inkscape:groupmode="layer"
     id="layer1"
     transform="translate(173.50447,-22.626904)">
    <path
       id="path1890"
       d="m -168.44777,29.803642 h -0.6227 l 1.14227,-5.886808 h 0.74919 a 0.29434036,0.29434036 0 0 0 0.28889,-0.237993 l 0.11482,-0.58868 c 0.0355,-0.181737 -0.10371,-0.350688 -0.28889,-0.350688 h -2.93849 a 0.29434036,0.29434036 0 0 0 -0.2889,0.237992 l -0.11482,0.588681 c -0.0354,0.181736 0.10371,0.350688 0.28889,0.350688 h 0.62264 l -1.14222,5.886808 h -0.72612 a 0.29434036,0.29434036 0 0 0 -0.2889,0.237955 l -0.11488,0.588681 c -0.0354,0.181755 0.10371,0.350724 0.28891,0.350724 h 2.91542 a 0.29434036,0.29434036 0 0 0 0.2889,-0.237955 l 0.11489,-0.58868 c 0.0354,-0.181756 -0.10373,-0.350725 -0.2889,-0.350725 z"
       inkscape:connector-curvature="0"
       style="fill:#cccccc;fill-opacity:1;stroke:#000000;stroke-width:0.25946465;stroke-miterlimit:4;stroke-dasharray:none;stroke-opacity:1"
       inkscape:export-xdpi="90"
       inkscape:export-ydpi="90" />
  </g>
</svg>
