<?xml version="1.0" encoding="UTF-8" standalone="no"?>
<!-- Created with Inkscape (http://www.inkscape.org/) -->

<svg
   xmlns:dc="http://purl.org/dc/elements/1.1/"
   xmlns:cc="http://creativecommons.org/ns#"
   xmlns:rdf="http://www.w3.org/1999/02/22-rdf-syntax-ns#"
   xmlns:svg="http://www.w3.org/2000/svg"
   xmlns="http://www.w3.org/2000/svg"
   xmlns:sodipodi="http://sodipodi.sourceforge.net/DTD/sodipodi-0.dtd"
   xmlns:inkscape="http://www.inkscape.org/namespaces/inkscape"
   width="32"
   height="32"
   viewBox="0 0 8.4666666 8.4666667"
   version="1.1"
   id="svg2706"
   inkscape:version="0.92.4 (unknown)"
   sodipodi:docname="new.svg">
  <defs
     id="defs2700" />
  <sodipodi:namedview
     id="base"
     pagecolor="#ffffff"
     bordercolor="#666666"
     borderopacity="1.0"
     inkscape:pageopacity="0.0"
     inkscape:pageshadow="2"
     inkscape:zoom="8.0125"
     inkscape:cx="25.005466"
     inkscape:cy="25.376153"
     inkscape:document-units="mm"
     inkscape:current-layer="layer1"
     showgrid="false"
     fit-margin-top="0"
     fit-margin-left="0"
     fit-margin-right="0"
     fit-margin-bottom="0"
     inkscape:window-width="1600"
     inkscape:window-height="832"
     inkscape:window-x="0"
     inkscape:window-y="0"
     inkscape:window-maximized="1"
     units="px" />
  <metadata
     id="metadata2703">
    <rdf:RDF>
      <cc:Work
         rdf:about="">
        <dc:format>image/svg+xml</dc:format>
        <dc:type
           rdf:resource="http://purl.org/dc/dcmitype/StillImage" />
        <dc:title></dc:title>
      </cc:Work>
    </rdf:RDF>
  </metadata>
  <g
     inkscape:label="Ebene 1"
     inkscape:groupmode="layer"
     id="layer1"
     transform="translate(173.50447,-22.626904)">
    <path
       id="path1956"
       d="m -165.9891,24.840521 h -3.02957 l -1.00985,-1.009857 h -2.52465 c -0.4183,0 -0.7574,0.33909 -0.7574,0.757393 v 4.54436 c 0,0.418303 0.3391,0.757393 0.7574,0.757393 h 6.56407 c 0.41831,0 0.75739,-0.33909 0.75739,-0.757393 v -3.534503 c 0,-0.418301 -0.33908,-0.757393 -0.75739,-0.757393 z m -1.51478,2.650877 c 0,0.139487 -0.11298,0.252464 -0.25247,0.252464 h -1.13609 v 1.13609 c 0,0.139487 -0.11298,0.252465 -0.25246,0.252465 h -0.25247 c -0.13948,0 -0.25246,-0.112978 -0.25246,-0.252465 v -1.13609 h -1.1361 c -0.13948,0 -0.25245,-0.112977 -0.25245,-0.252464 v -0.252464 c 0,-0.139487 0.11297,-0.252464 0.25245,-0.252464 h 1.1361 v -1.136091 c 0,-0.139487 0.11298,-0.252465 0.25246,-0.252465 h 0.25247 c 0.13948,0 0.25246,0.112978 0.25246,0.252465 v 1.136091 h 1.13609 c 0.13949,0 0.25247,0.112977 0.25247,0.252464 z"
       inkscape:connector-curvature="0"
       style="fill:#cccccc;fill-opacity:1;stroke:#000000;stroke-width:0.25287923;stroke-miterlimit:4;stroke-dasharray:none;stroke-opacity:1"
       inkscape:export-xdpi="90"
       inkscape:export-ydpi="90" />
  </g>
</svg>
