<?xml version="1.0" encoding="UTF-8" standalone="no"?>
<!-- Created with Inkscape (http://www.inkscape.org/) -->

<svg
   xmlns:dc="http://purl.org/dc/elements/1.1/"
   xmlns:cc="http://creativecommons.org/ns#"
   xmlns:rdf="http://www.w3.org/1999/02/22-rdf-syntax-ns#"
   xmlns:svg="http://www.w3.org/2000/svg"
   xmlns="http://www.w3.org/2000/svg"
   xmlns:sodipodi="http://sodipodi.sourceforge.net/DTD/sodipodi-0.dtd"
   xmlns:inkscape="http://www.inkscape.org/namespaces/inkscape"
   width="25"
   height="25"
   viewBox="0 0 6.6145832 6.6145835"
   version="1.1"
   id="svg4402"
   inkscape:version="0.92.4 (unknown)"
   sodipodi:docname="trash.svg">
  <defs
     id="defs4396" />
  <sodipodi:namedview
     id="base"
     pagecolor="#ffffff"
     bordercolor="#666666"
     borderopacity="1.0"
     inkscape:pageopacity="0.0"
     inkscape:pageshadow="2"
     inkscape:zoom="8.9833333"
     inkscape:cx="-15.398887"
     inkscape:cy="7.1428571"
     inkscape:document-units="mm"
     inkscape:current-layer="layer1"
     showgrid="false"
     units="px"
     inkscape:window-width="1600"
     inkscape:window-height="832"
     inkscape:window-x="0"
     inkscape:window-y="0"
     inkscape:window-maximized="1" />
  <metadata
     id="metadata4399">
    <rdf:RDF>
      <cc:Work
         rdf:about="">
        <dc:format>image/svg+xml</dc:format>
        <dc:type
           rdf:resource="http://purl.org/dc/dcmitype/StillImage" />
        <dc:title />
      </cc:Work>
    </rdf:RDF>
  </metadata>
  <g
     inkscape:label="Ebene 1"
     inkscape:groupmode="layer"
     id="layer1"
     transform="translate(0,-290.3854)">
    <path
       d="m 6.4822919,293.69269 a 3.1750002,3.1750002 0 0 1 -3.1671729,3.17499 3.1750002,3.1750002 0 0 1 -3.18278885,-3.15934 3.1750002,3.1750002 0 0 1 3.15148005,-3.19057 3.1750002,3.1750002 0 0 1 3.1983274,3.14361"
       sodipodi:open="true"
       sodipodi:end="6.2733242"
       sodipodi:start="0"
       sodipodi:ry="3.1750002"
       sodipodi:rx="3.1750002"
       sodipodi:cy="293.69269"
       sodipodi:cx="3.3072917"
       sodipodi:type="arc"
       id="path935"
       style="fill:#0000ff;fill-opacity:1;stroke:none;stroke-width:0.27323022" />
    <path
       style="fill:#ff00ff;stroke-width:0.00801625;fill-opacity:1"
       inkscape:connector-curvature="0"
       d="m 1.7680752,295.36007 a 0.38478001,0.38478001 0 0 0 0.3847801,0.38478 h 2.30868 a 0.38478001,0.38478001 0 0 0 0.3847801,-0.38478 v -2.69346 H 1.7680752 Z m 2.1804202,-2.05216 a 0.12826168,0.12826168 0 0 1 0.2565199,0 v 1.79564 a 0.12826168,0.12826168 0 0 1 -0.2565199,0 z m -0.7695602,0 a 0.12826096,0.12826096 0 0 1 0.2565199,0 v 1.79564 a 0.12826096,0.12826096 0 0 1 -0.2565199,0 z m -0.7695599,0 a 0.12826006,0.12826006 0 0 1 0.2565199,0 v 1.79564 a 0.12826006,0.12826006 0 0 1 -0.2565199,0 z m 2.5651999,-1.41086 H 4.0126253 l -0.0753,-0.1499 a 0.19239,0.19239 0 0 0 -0.17235,-0.10662 H 2.8487151 a 0.19014545,0.19014545 0 0 0 -0.1715499,0.10662 l -0.0753,0.1499 H 1.6399051 a 0.12825999,0.12825999 0 0 0 -0.12825,0.12826 v 0.25652 a 0.12825999,0.12825999 0 0 0 0.12825,0.12826 h 3.3347701 a 0.12825999,0.12825999 0 0 0 0.1282601,-0.12826 v -0.25652 a 0.12825999,0.12825999 0 0 0 -0.1282601,-0.12826 z"
       id="path1243" />
  </g>
</svg>
