<?xml version="1.0" encoding="UTF-8" standalone="no"?>
<!-- Created with Inkscape (http://www.inkscape.org/) -->

<svg
   xmlns:dc="http://purl.org/dc/elements/1.1/"
   xmlns:cc="http://creativecommons.org/ns#"
   xmlns:rdf="http://www.w3.org/1999/02/22-rdf-syntax-ns#"
   xmlns:svg="http://www.w3.org/2000/svg"
   xmlns="http://www.w3.org/2000/svg"
   xmlns:xlink="http://www.w3.org/1999/xlink"
   xmlns:sodipodi="http://sodipodi.sourceforge.net/DTD/sodipodi-0.dtd"
   xmlns:inkscape="http://www.inkscape.org/namespaces/inkscape"
   width="179.19998"
   height="400.00003"
   viewBox="0 0 47.413328 105.83334"
   version="1.1"
   id="svg8"
   inkscape:version="0.92.4 (unknown)"
   sodipodi:docname="background.svg"
   inkscape:export-filename="/home/art/Sourcecode/Python/EbookCreator/images/background.png"
   inkscape:export-xdpi="96"
   inkscape:export-ydpi="96">
  <defs
     id="defs2">
    <linearGradient
       inkscape:collect="always"
       id="linearGradient1493">
      <stop
         style="stop-color:#333333;stop-opacity:1;"
         offset="0"
         id="stop1489" />
      <stop
         style="stop-color:#333333;stop-opacity:0;"
         offset="1"
         id="stop1491" />
    </linearGradient>
    <linearGradient
       inkscape:collect="always"
       xlink:href="#linearGradient1493"
       id="linearGradient1495"
       x1="-12.447616"
       y1="267.98538"
       x2="-12.447616"
       y2="325.66638"
       gradientUnits="userSpaceOnUse"
       gradientTransform="translate(-0.34643197,0.17321618)" />
  </defs>
  <sodipodi:namedview
     id="base"
     pagecolor="#ffffff"
     bordercolor="#666666"
     borderopacity="1.0"
     inkscape:pageopacity="0.0"
     inkscape:pageshadow="2"
     inkscape:zoom="1.5274747"
     inkscape:cx="235.43985"
     inkscape:cy="203.56998"
     inkscape:document-units="mm"
     inkscape:current-layer="layer1"
     showgrid="false"
     units="px"
     inkscape:window-width="1600"
     inkscape:window-height="832"
     inkscape:window-x="0"
     inkscape:window-y="0"
     inkscape:window-maximized="1"
     fit-margin-top="0"
     fit-margin-left="0"
     fit-margin-right="0"
     fit-margin-bottom="0" />
  <metadata
     id="metadata5">
    <rdf:RDF>
      <cc:Work
         rdf:about="">
        <dc:format>image/svg+xml</dc:format>
        <dc:type
           rdf:resource="http://purl.org/dc/dcmitype/StillImage" />
        <dc:title></dc:title>
      </cc:Work>
    </rdf:RDF>
  </metadata>
  <g
     inkscape:label="Ebene 1"
     inkscape:groupmode="layer"
     id="layer1"
     transform="translate(30.462097,-220.52591)">
    <rect
       style="fill:url(#linearGradient1495);fill-opacity:1;stroke:none;stroke-width:0.26458332"
       id="rect1475"
       width="47.41333"
       height="105.83334"
       x="-30.462097"
       y="220.52591" />
    <rect
       style="fill:#ffffff;fill-opacity:1;stroke:none;stroke-width:0.29008546"
       id="rect1497"
       width="32"
       height="32"
       x="-22.408998"
       y="227.74712" />
    <g
       id="g1462"
       transform="matrix(0.53856631,0,0,0.53856631,-23.28297,102.03238)">
      <path
         sodipodi:nodetypes="ccccccccccsccccccccccccccccccscccc"
         inkscape:connector-curvature="0"
         id="path845"
         d="m 26.832075,285.73828 c -0.32573,-0.0616 -0.681472,-0.2093 -0.976316,-0.40513 -0.210194,-0.1396 -20.557212,-20.48281 -20.7157113,-20.71183 -0.2278125,-0.32918 -0.3762882,-0.69566 -0.4380724,-1.08129 -0.047531,-0.29665 -0.019039,-0.82386 0.059059,-1.0932 0.07972,-0.2749 0.2635983,-0.65107 0.4251806,-0.8698 0.1732095,-0.23447 20.3979681,-20.43851 20.6212191,-20.60009 0.315046,-0.22804 0.670057,-0.37873 1.04813,-0.44495 0.235184,-0.0412 0.647066,-0.046 0.872672,-0.0103 0.386094,0.0613 0.837177,0.25196 1.135569,0.47996 0.08638,0.066 2.973008,2.93662 6.414738,6.37917 l 6.127131,6.2822 -6.984832,7.09239 -7.115393,7.11543 -2.367777,-2.36777 -1.901636,-2.37148 4.281464,-4.74396 4.747603,-4.74765 -2.373807,-2.37381 -2.373807,-2.37381 -7.121454,7.12146 -7.121454,7.12145 7.121455,7.12146 7.121457,7.12146 9.48947,-9.48946 9.357057,-9.5424 1.68131,1.60551 c 1.002344,1.00472 1.585125,1.60684 1.651568,1.70636 0.605317,0.90677 0.609044,2.01417 0.0099,2.93424 -0.08975,0.13783 -2.214531,2.27618 -10.287435,10.35313 -6.279432,6.28258 -10.246998,10.23465 -10.364165,10.32364 -0.233118,0.17708 -0.564626,0.33901 -0.864562,0.42231 -0.285737,0.0793 -0.863007,0.10262 -1.158538,0.0466 z"
         style="fill:#9fd723;fill-opacity:1;stroke-width:0.02416104" />
      <text
         id="text1439"
         y="276.78156"
         x="29.147907"
         style="font-style:normal;font-weight:normal;font-size:39.8285141px;line-height:1.25;font-family:sans-serif;letter-spacing:0px;word-spacing:0px;fill:#333333;fill-opacity:1;stroke:none;stroke-width:0.99571282"
         xml:space="preserve"><tspan
           style="font-style:normal;font-variant:normal;font-weight:bold;font-stretch:normal;font-family:'URW Bookman L';-inkscape-font-specification:'URW Bookman L Bold';fill:#333333;fill-opacity:1;stroke-width:0.99571282"
           y="276.78156"
           x="29.147907"
           id="tspan1437"
           sodipodi:role="line">C</tspan></text>
    </g>
  </g>
</svg>
